<svg id="svg" viewBox="0 0 300 200" width="300" height="200" xmlns="http://www.w3.org/2000/svg">

    <!-- ===================== -->
    <!-- Dark / Light mode -->
    <!-- ===================== -->
    <style>
        /* ===================== */
        /* Light mode - Sunset / Terracotta */
        /* ===================== */
        rect.bg { fill: #fff6ef; } /* warm off-white */

        .top { fill: #f2b28c; } /* sunlit terracotta */
        .left { fill: #e18d63; } /* clay shadow */
        .right { fill: #c96a4a; } /* deep burnt terracotta */

        .pillar { filter: url(#glow); }

        /* ===================== */
        /* Dark mode - keep as-is */
        /* ===================== */
        @media (prefers-color-scheme: dark) {
        rect.bg { fill: #0b0f1a; }

        .top { fill: #b4ccff; }
        .left { fill: #7a96f0; }
        .right { fill: #566dd0; }
        }
    </style>


    <defs>
        <!-- Ambient glow -->
        <filter id="glow" x="-50%" y="-50%" width="200%" height="200%">
            <feGaussianBlur stdDeviation="2.5" result="blur" />
            <feMerge>
                <feMergeNode in="blur" />
                <feMergeNode in="SourceGraphic" />
            </feMerge>
        </filter>
    </defs>

    <!-- Background -->
    <rect class="bg" width="300" height="200" rx="22" />

    <clipPath id="bg-clip">
        <rect width="300" height="200" rx="22" ry="22" />
    </clipPath>


    <!-- ===================== -->
    <!-- ISOMETRIC FIELD -->
    <!-- ===================== -->
    <g clip-path="url(#bg-clip)">
        <g transform="translate(0 100)">
            <!-- Pillars Animation Path -->
            <path id="pillar_path" fill="none" stroke="none"
                d="M 0 0 
        C 0,0 5,-15 0,-30
        C 0,-30 -5,-15 0,0
        " />

            <!-- ROW 5 -->
            <g transform="translate(-10 -80)">
                <g class="pillar" transform="translate(0 0)">
                    <!-- Pillars Animation -->
                    <animateMotion type="translate" dur="2s" begin="0s" repeatCount="indefinite">
                        <mpath href="#pillar_path" />
                    </animateMotion>
                    <!-- Pillar Definition -->
                    <polygon class="top" points="0,-20 30,-35 60,-20 30,-5" />
                    <polygon class="left" points="0,-20 0,20 30,35 30,-5" />
                    <polygon class="right" points="60,-20 60,20 30,35 30,-5" />
                </g>

                <g class="pillar" transform="translate(58 0)">
                    <!-- Pillars Animation -->
                    <animateMotion type="translate" dur="2s" begin="0.3s" repeatCount="indefinite">
                        <mpath href="#pillar_path" />
                    </animateMotion>
                    <!-- Pillar Definition -->
                    <polygon class="top" points="0,-20 30,-35 60,-20 30,-5" />
                    <polygon class="left" points="0,-20 0,20 30,35 30,-5" />
                    <polygon class="right" points="60,-20 60,20 30,35 30,-5" />
                </g>

                <g class="pillar" transform="translate(116 0)">
                    <!-- Pillars Animation -->
                    <animateMotion type="translate" dur="2s" begin="0.6s" repeatCount="indefinite">
                        <mpath href="#pillar_path" />
                    </animateMotion>
                    <!-- Pillar Definition -->
                    <polygon class="top" points="0,-20 30,-35 60,-20 30,-5" />
                    <polygon class="left" points="0,-20 0,20 30,35 30,-5" />
                    <polygon class="right" points="60,-20 60,20 30,35 30,-5" />
                </g>

                <g class="pillar" transform="translate(174 0)">
                    <!-- Pillars Animation -->
                    <animateMotion type="translate" dur="2s" begin="0.9s" repeatCount="indefinite">
                        <mpath href="#pillar_path" />
                    </animateMotion>
                    <!-- Pillar Definition -->
                    <polygon class="top" points="0,-20 30,-35 60,-20 30,-5" />
                    <polygon class="left" points="0,-20 0,20 30,35 30,-5" />
                    <polygon class="right" points="60,-20 60,20 30,35 30,-5" />
                </g>

                <g class="pillar" transform="translate(232 0)">
                    <!-- Pillars Animation -->
                    <animateMotion type="translate" dur="2s" begin="1.2s" repeatCount="indefinite">
                        <mpath href="#pillar_path" />
                    </animateMotion>
                    <!-- Pillar Definition -->
                    <polygon class="top" points="0,-20 30,-35 60,-20 30,-5" />
                    <polygon class="left" points="0,-20 0,20 30,35 30,-5" />
                    <polygon class="right" points="60,-20 60,20 30,35 30,-5" />
                </g>

                <g class="pillar" transform="translate(290 0)">
                    <!-- Pillars Animation -->
                    <animateMotion type="translate" dur="2s" begin="1.4s" repeatCount="indefinite">
                        <mpath href="#pillar_path" />
                    </animateMotion>
                    <!-- Pillar Definition -->
                    <polygon class="top" points="0,-20 30,-35 60,-20 30,-5" />
                    <polygon class="left" points="0,-20 0,20 30,35 30,-5" />
                    <polygon class="right" points="60,-20 60,20 30,35 30,-5" />
                </g>
            </g>

            <!-- ROW 4 -->
            <g transform="translate(-40 -40)">
                <g class="pillar" transform="translate(0 0)">
                    <!-- Pillars Animation -->
                    <animateMotion type="translate" dur="2s" begin="0.1s" repeatCount="indefinite">
                        <mpath href="#pillar_path" />
                    </animateMotion>
                    <!-- Pillar Definition -->
                    <polygon class="top" points="0,-20 30,-35 60,-20 30,-5" />
                    <polygon class="left" points="0,-20 0,20 30,35 30,-5" />
                    <polygon class="right" points="60,-20 60,20 30,35 30,-5" />
                </g>

                <g class="pillar" transform="translate(58 0)">
                    <!-- Pillars Animation -->
                    <animateMotion type="translate" dur="2s" begin="0.4s" repeatCount="indefinite">
                        <mpath href="#pillar_path" />
                    </animateMotion>
                    <!-- Pillar Definition -->
                    <polygon class="top" points="0,-20 30,-35 60,-20 30,-5" />
                    <polygon class="left" points="0,-20 0,20 30,35 30,-5" />
                    <polygon class="right" points="60,-20 60,20 30,35 30,-5" />
                </g>

                <g class="pillar" transform="translate(116 0)">
                    <!-- Pillars Animation -->
                    <animateMotion type="translate" dur="2s" begin="0.7s" repeatCount="indefinite">
                        <mpath href="#pillar_path" />
                    </animateMotion>
                    <!-- Pillar Definition -->
                    <polygon class="top" points="0,-20 30,-35 60,-20 30,-5" />
                    <polygon class="left" points="0,-20 0,20 30,35 30,-5" />
                    <polygon class="right" points="60,-20 60,20 30,35 30,-5" />
                </g>

                <g class="pillar" transform="translate(174 0)">
                    <!-- Pillars Animation -->
                    <animateMotion type="translate" dur="2s" begin="1.0s" repeatCount="indefinite">
                        <mpath href="#pillar_path" />
                    </animateMotion>
                    <!-- Pillar Definition -->
                    <polygon class="top" points="0,-20 30,-35 60,-20 30,-5" />
                    <polygon class="left" points="0,-20 0,20 30,35 30,-5" />
                    <polygon class="right" points="60,-20 60,20 30,35 30,-5" />
                </g>

                <g class="pillar" transform="translate(232 0)">
                    <!-- Pillars Animation -->
                    <animateMotion type="translate" dur="2s" begin="1.3s" repeatCount="indefinite">
                        <mpath href="#pillar_path" />
                    </animateMotion>
                    <!-- Pillar Definition -->
                    <polygon class="top" points="0,-20 30,-35 60,-20 30,-5" />
                    <polygon class="left" points="0,-20 0,20 30,35 30,-5" />
                    <polygon class="right" points="60,-20 60,20 30,35 30,-5" />
                </g>

                <g class="pillar" transform="translate(290 0)">
                    <!-- Pillars Animation -->
                    <animateMotion type="translate" dur="2s" begin="1.6s" repeatCount="indefinite">
                        <mpath href="#pillar_path" />
                    </animateMotion>
                    <!-- Pillar Definition -->
                    <polygon class="top" points="0,-20 30,-35 60,-20 30,-5" />
                    <polygon class="left" points="0,-20 0,20 30,35 30,-5" />
                    <polygon class="right" points="60,-20 60,20 30,35 30,-5" />
                </g>
            </g>

            <!-- ROW 3 -->
            <g transform="translate(-10 0)">
                <g class="pillar" transform="translate(0 0)">
                    <!-- Pillars Animation -->
                    <animateMotion type="translate" dur="2s" begin="0s" repeatCount="indefinite">
                        <mpath href="#pillar_path" />
                    </animateMotion>
                    <!-- Pillar Definition -->
                    <polygon class="top" points="0,-20 30,-35 60,-20 30,-5" />
                    <polygon class="left" points="0,-20 0,20 30,35 30,-5" />
                    <polygon class="right" points="60,-20 60,20 30,35 30,-5" />
                </g>

                <g class="pillar" transform="translate(58 0)">
                    <!-- Pillars Animation -->
                    <animateMotion type="translate" dur="2s" begin="0.3s" repeatCount="indefinite">
                        <mpath href="#pillar_path" />
                    </animateMotion>
                    <!-- Pillar Definition -->
                    <polygon class="top" points="0,-20 30,-35 60,-20 30,-5" />
                    <polygon class="left" points="0,-20 0,20 30,35 30,-5" />
                    <polygon class="right" points="60,-20 60,20 30,35 30,-5" />
                </g>

                <g class="pillar" transform="translate(116 0)">
                    <!-- Pillars Animation -->
                    <animateMotion type="translate" dur="2s" begin="0.6s" repeatCount="indefinite">
                        <mpath href="#pillar_path" />
                    </animateMotion>
                    <!-- Pillar Definition -->
                    <polygon class="top" points="0,-20 30,-35 60,-20 30,-5" />
                    <polygon class="left" points="0,-20 0,20 30,35 30,-5" />
                    <polygon class="right" points="60,-20 60,20 30,35 30,-5" />
                </g>

                <g class="pillar" transform="translate(174 0)">
                    <!-- Pillars Animation -->
                    <animateMotion type="translate" dur="2s" begin="0.9s" repeatCount="indefinite">
                        <mpath href="#pillar_path" />
                    </animateMotion>
                    <!-- Pillar Definition -->
                    <polygon class="top" points="0,-20 30,-35 60,-20 30,-5" />
                    <polygon class="left" points="0,-20 0,20 30,35 30,-5" />
                    <polygon class="right" points="60,-20 60,20 30,35 30,-5" />
                </g>

                <g class="pillar" transform="translate(232 0)">
                    <!-- Pillars Animation -->
                    <animateMotion type="translate" dur="2s" begin="1.2s" repeatCount="indefinite">
                        <mpath href="#pillar_path" />
                    </animateMotion>
                    <!-- Pillar Definition -->
                    <polygon class="top" points="0,-20 30,-35 60,-20 30,-5" />
                    <polygon class="left" points="0,-20 0,20 30,35 30,-5" />
                    <polygon class="right" points="60,-20 60,20 30,35 30,-5" />
                </g>

                <g class="pillar" transform="translate(290 0)">
                    <!-- Pillars Animation -->
                    <animateMotion type="translate" dur="2s" begin="1.4s" repeatCount="indefinite">
                        <mpath href="#pillar_path" />
                    </animateMotion>
                    <!-- Pillar Definition -->
                    <polygon class="top" points="0,-20 30,-35 60,-20 30,-5" />
                    <polygon class="left" points="0,-20 0,20 30,35 30,-5" />
                    <polygon class="right" points="60,-20 60,20 30,35 30,-5" />
                </g>
            </g>

            <!-- ROW 2 -->
            <g transform="translate(-40 40)">
                <g class="pillar" transform="translate(0 0)">
                    <!-- Pillars Animation -->
                    <animateMotion type="translate" dur="2s" begin="0.1s" repeatCount="indefinite">
                        <mpath href="#pillar_path" />
                    </animateMotion>
                    <!-- Pillar Definition -->
                    <polygon class="top" points="0,-20 30,-35 60,-20 30,-5" />
                    <polygon class="left" points="0,-20 0,20 30,35 30,-5" />
                    <polygon class="right" points="60,-20 60,20 30,35 30,-5" />
                </g>

                <g class="pillar" transform="translate(58 0)">
                    <!-- Pillars Animation -->
                    <animateMotion type="translate" dur="2s" begin="0.4s" repeatCount="indefinite">
                        <mpath href="#pillar_path" />
                    </animateMotion>
                    <!-- Pillar Definition -->
                    <polygon class="top" points="0,-20 30,-35 60,-20 30,-5" />
                    <polygon class="left" points="0,-20 0,20 30,35 30,-5" />
                    <polygon class="right" points="60,-20 60,20 30,35 30,-5" />
                </g>

                <g class="pillar" transform="translate(116 0)">
                    <!-- Pillars Animation -->
                    <animateMotion type="translate" dur="2s" begin="0.7s" repeatCount="indefinite">
                        <mpath href="#pillar_path" />
                    </animateMotion>
                    <!-- Pillar Definition -->
                    <polygon class="top" points="0,-20 30,-35 60,-20 30,-5" />
                    <polygon class="left" points="0,-20 0,20 30,35 30,-5" />
                    <polygon class="right" points="60,-20 60,20 30,35 30,-5" />
                </g>

                <g class="pillar" transform="translate(174 0)">
                    <!-- Pillars Animation -->
                    <animateMotion type="translate" dur="2s" begin="1.0s" repeatCount="indefinite">
                        <mpath href="#pillar_path" />
                    </animateMotion>
                    <!-- Pillar Definition -->
                    <polygon class="top" points="0,-20 30,-35 60,-20 30,-5" />
                    <polygon class="left" points="0,-20 0,20 30,35 30,-5" />
                    <polygon class="right" points="60,-20 60,20 30,35 30,-5" />
                </g>

                <g class="pillar" transform="translate(232 0)">
                    <!-- Pillars Animation -->
                    <animateMotion type="translate" dur="2s" begin="1.3s" repeatCount="indefinite">
                        <mpath href="#pillar_path" />
                    </animateMotion>
                    <!-- Pillar Definition -->
                    <polygon class="top" points="0,-20 30,-35 60,-20 30,-5" />
                    <polygon class="left" points="0,-20 0,20 30,35 30,-5" />
                    <polygon class="right" points="60,-20 60,20 30,35 30,-5" />
                </g>

                <g class="pillar" transform="translate(290 0)">
                    <!-- Pillars Animation -->
                    <animateMotion type="translate" dur="2s" begin="1.6s" repeatCount="indefinite">
                        <mpath href="#pillar_path" />
                    </animateMotion>
                    <!-- Pillar Definition -->
                    <polygon class="top" points="0,-20 30,-35 60,-20 30,-5" />
                    <polygon class="left" points="0,-20 0,20 30,35 30,-5" />
                    <polygon class="right" points="60,-20 60,20 30,35 30,-5" />
                </g>
            </g>

            <!-- ROW 1 -->
            <g transform="translate(-10 80)">
                <g class="pillar" transform="translate(0 0)">
                    <!-- Pillars Animation -->
                    <animateMotion type="translate" dur="2s" begin="0.1s" repeatCount="indefinite">
                        <mpath href="#pillar_path" />
                    </animateMotion>
                    <!-- Pillar Definition -->
                    <polygon class="top" points="0,-20 30,-35 60,-20 30,-5" />
                    <polygon class="left" points="0,-20 0,20 30,35 30,-5" />
                    <polygon class="right" points="60,-20 60,20 30,35 30,-5" />
                </g>

                <g class="pillar" transform="translate(58 0)">
                    <!-- Pillars Animation -->
                    <animateMotion type="translate" dur="2s" begin="0.4s" repeatCount="indefinite">
                        <mpath href="#pillar_path" />
                    </animateMotion>
                    <!-- Pillar Definition -->
                    <polygon class="top" points="0,-20 30,-35 60,-20 30,-5" />
                    <polygon class="left" points="0,-20 0,20 30,35 30,-5" />
                    <polygon class="right" points="60,-20 60,20 30,35 30,-5" />
                </g>

                <g class="pillar" transform="translate(116 0)">
                    <!-- Pillars Animation -->
                    <animateMotion type="translate" dur="2s" begin="0.7s" repeatCount="indefinite">
                        <mpath href="#pillar_path" />
                    </animateMotion>
                    <!-- Pillar Definition -->
                    <polygon class="top" points="0,-20 30,-35 60,-20 30,-5" />
                    <polygon class="left" points="0,-20 0,20 30,35 30,-5" />
                    <polygon class="right" points="60,-20 60,20 30,35 30,-5" />
                </g>

                <g class="pillar" transform="translate(174 0)">
                    <!-- Pillars Animation -->
                    <animateMotion type="translate" dur="2s" begin="1.0s" repeatCount="indefinite">
                        <mpath href="#pillar_path" />
                    </animateMotion>
                    <!-- Pillar Definition -->
                    <polygon class="top" points="0,-20 30,-35 60,-20 30,-5" />
                    <polygon class="left" points="0,-20 0,20 30,35 30,-5" />
                    <polygon class="right" points="60,-20 60,20 30,35 30,-5" />
                </g>

                <g class="pillar" transform="translate(232 0)">
                    <!-- Pillars Animation -->
                    <animateMotion type="translate" dur="2s" begin="1.3s" repeatCount="indefinite">
                        <mpath href="#pillar_path" />
                    </animateMotion>
                    <!-- Pillar Definition -->
                    <polygon class="top" points="0,-20 30,-35 60,-20 30,-5" />
                    <polygon class="left" points="0,-20 0,20 30,35 30,-5" />
                    <polygon class="right" points="60,-20 60,20 30,35 30,-5" />
                </g>

                <g class="pillar" transform="translate(290 0)">
                    <!-- Pillars Animation -->
                    <animateMotion type="translate" dur="2s" begin="1.6s" repeatCount="indefinite">
                        <mpath href="#pillar_path" />
                    </animateMotion>
                    <!-- Pillar Definition -->
                    <polygon class="top" points="0,-20 30,-35 60,-20 30,-5" />
                    <polygon class="left" points="0,-20 0,20 30,35 30,-5" />
                    <polygon class="right" points="60,-20 60,20 30,35 30,-5" />
                </g>
            </g>

            <!-- ROW 0 -->
            <g transform="translate(-40 120)">
                <g class="pillar" transform="translate(0 0)">
                    <!-- Pillars Animation -->
                    <animateMotion type="translate" dur="2s" begin="0.1s" repeatCount="indefinite">
                        <mpath href="#pillar_path" />
                    </animateMotion>
                    <!-- Pillar Definition -->
                    <polygon class="top" points="0,-20 30,-35 60,-20 30,-5" />
                    <polygon class="left" points="0,-20 0,20 30,35 30,-5" />
                    <polygon class="right" points="60,-20 60,20 30,35 30,-5" />
                </g>

                <g class="pillar" transform="translate(58 0)">
                    <!-- Pillars Animation -->
                    <animateMotion type="translate" dur="2s" begin="0.4s" repeatCount="indefinite">
                        <mpath href="#pillar_path" />
                    </animateMotion>
                    <!-- Pillar Definition -->
                    <polygon class="top" points="0,-20 30,-35 60,-20 30,-5" />
                    <polygon class="left" points="0,-20 0,20 30,35 30,-5" />
                    <polygon class="right" points="60,-20 60,20 30,35 30,-5" />
                </g>

                <g class="pillar" transform="translate(116 0)">
                    <!-- Pillars Animation -->
                    <animateMotion type="translate" dur="2s" begin="0.7s" repeatCount="indefinite">
                        <mpath href="#pillar_path" />
                    </animateMotion>
                    <!-- Pillar Definition -->
                    <polygon class="top" points="0,-20 30,-35 60,-20 30,-5" />
                    <polygon class="left" points="0,-20 0,20 30,35 30,-5" />
                    <polygon class="right" points="60,-20 60,20 30,35 30,-5" />
                </g>

                <g class="pillar" transform="translate(174 0)">
                    <!-- Pillars Animation -->
                    <animateMotion type="translate" dur="2s" begin="1.0s" repeatCount="indefinite">
                        <mpath href="#pillar_path" />
                    </animateMotion>
                    <!-- Pillar Definition -->
                    <polygon class="top" points="0,-20 30,-35 60,-20 30,-5" />
                    <polygon class="left" points="0,-20 0,20 30,35 30,-5" />
                    <polygon class="right" points="60,-20 60,20 30,35 30,-5" />
                </g>

                <g class="pillar" transform="translate(232 0)">
                    <!-- Pillars Animation -->
                    <animateMotion type="translate" dur="2s" begin="1.3s" repeatCount="indefinite">
                        <mpath href="#pillar_path" />
                    </animateMotion>
                    <!-- Pillar Definition -->
                    <polygon class="top" points="0,-20 30,-35 60,-20 30,-5" />
                    <polygon class="left" points="0,-20 0,20 30,35 30,-5" />
                    <polygon class="right" points="60,-20 60,20 30,35 30,-5" />
                </g>

                <g class="pillar" transform="translate(290 0)">
                    <!-- Pillars Animation -->
                    <animateMotion type="translate" dur="2s" begin="1.6s" repeatCount="indefinite">
                        <mpath href="#pillar_path" />
                    </animateMotion>
                    <!-- Pillar Definition -->
                    <polygon class="top" points="0,-20 30,-35 60,-20 30,-5" />
                    <polygon class="left" points="0,-20 0,20 30,35 30,-5" />
                    <polygon class="right" points="60,-20 60,20 30,35 30,-5" />
                </g>
            </g>

        </g>
    </g>

</svg>